<?xml version="1.0" encoding="utf-8"?>
<!-- Svg Vector Icons : http://www.onlinewebfonts.com/icon -->
<!DOCTYPE svg PUBLIC "-//W3C//DTD SVG 1.1//EN" "http://www.w3.org/Graphics/SVG/1.1/DTD/svg11.dtd">
<svg version="1.1" xmlns="http://www.w3.org/2000/svg" xmlns:xlink="http://www.w3.org/1999/xlink" x="0px" y="0px" viewBox="0 0 1000 1000" enable-background="new 0 0 1000 1000" xml:space="preserve">
<metadata> Svg Vector Icons : http://www.onlinewebfonts.com/icon </metadata>
<g><path d="M735.8,489.6c-38.1-7.4-19.6-27.9-19.6-27.9s37.3-61.5-7.4-106.2c-55.4-55.4-190,7-190,7c-51.4,16-37.7-7.3-30.5-46.8c0-46.6-16-125.4-152.9-78.8C198.7,283.8,81.3,447.7,81.3,447.7c-81.7,109-70.9,193.2-70.9,193.2c20.4,185.9,217.9,237,371.6,249.1c161.7,12.7,379.8-55.7,446-196.3C894.3,553,774,497.3,735.8,489.6z M394.1,837.6c-160.5,7.5-290.3-73-290.3-180.1c0-107.2,129.8-193.2,290.3-200.6c160.6-7.4,290.6,58.8,290.6,165.7C684.6,729.8,554.7,830.3,394.1,837.6z"/><path d="M362,527.5c-161.4,18.9-142.8,170.1-142.8,170.1s-1.6,47.9,43.3,72.3c94.4,51.1,191.7,20.2,240.8-43.2C552.6,663.2,523.7,508.8,362,527.5z M321.3,739.8c-30.1,3.5-54.4-13.9-54.4-39c0-25.1,21.6-51.4,51.8-54.5c34.6-3.3,57.1,16.6,57.1,41.9C375.8,713.1,351.4,736.3,321.3,739.8z M416.5,658.7c-10.2,7.6-22.7,6.6-28.1-2.6c-5.6-8.9-3.5-23.3,6.9-30.8c11.9-8.9,24.4-6.3,29.8,2.6C430.4,637.1,426.5,650.8,416.5,658.7z"/><path d="M814.4,424.2c13,0,24.1-9.6,25.9-22.2c0.2-0.9,0.3-1.8,0.3-2.8C860.4,222,695.4,252.5,695.4,252.5c-14.6,0-26.4,11.9-26.4,26.7c0,14.5,11.8,26.4,26.4,26.4c118.5-26.1,92.3,92.3,92.3,92.3C787.8,412.5,799.7,424.2,814.4,424.2z"/><path d="M795.2,114.8c-57.1-13.4-115.7-1.9-132.2,1.3c-1.2,0.1-2.5,1.3-3.6,1.6c-0.5,0.1-0.9,0.7-0.9,0.7c-16.2,4.6-28.1,19.6-28.1,37.3c0,21.1,17.1,38.5,38.5,38.5c0,0,20.7-2.8,34.8-8.3c14-5.6,132.1-4.2,190.7,94.4c32,71.9,14.1,120,11.9,127.8c0,0-7.6,18.7-7.6,37.1c0,21.2,17.1,34.6,38.3,34.6c17.8,0,32.6-2.4,37-32.4h0.2C1037.3,237.3,897.2,138.6,795.2,114.8z"/></g>
</svg>
